<svg version="1.1" id="Layer_1" xmlns="http://www.w3.org/2000/svg" xmlns:xlink="http://www.w3.org/1999/xlink" x="0px" y="0px"
	 width="100%" viewBox="0 0 1024 1024" enable-background="new 0 0 1024 1024" xml:space="preserve">
<path fill="white" opacity="1.000000" stroke="none" 
	d="
M578.357056,162.384521 
	C578.823242,160.718781 579.199707,159.439514 579.478271,158.139282 
	C579.884949,156.240967 579.556580,153.592316 581.897827,153.144196 
	C584.515015,152.643234 586.792114,154.320526 588.122192,156.540085 
	C592.169983,163.294785 595.254028,170.483749 596.292908,178.351822 
	C599.295166,201.090256 590.942505,220.053421 576.535461,236.941406 
	C566.949036,248.178711 555.625305,257.443390 543.563721,265.863464 
	C536.814819,270.574799 536.711060,270.822815 542.354492,276.482513 
	C551.947754,286.103394 560.166931,296.723969 566.545288,308.743774 
	C568.517029,312.459351 571.159668,315.615814 574.293823,318.449280 
	C589.122192,331.855255 603.887512,345.330994 618.655396,358.803711 
	C622.221252,362.056824 626.034241,365.089661 628.899780,369.024170 
	C633.921448,375.919189 635.971497,383.376221 632.189758,391.513855 
	C625.284363,406.373169 616.197083,419.719849 602.772217,429.389221 
	C584.989136,442.197601 565.882629,442.242218 546.523499,433.308167 
	C523.895996,422.865814 501.315460,423.144501 479.101257,433.772278 
	C465.522308,440.268799 456.019379,451.293610 450.840302,465.459412 
	C446.475464,477.398102 449.782593,488.744598 455.281647,499.597504 
	C459.345795,507.618622 464.622528,514.976379 468.201996,523.268127 
	C477.883331,545.694580 480.012146,569.091187 477.497833,593.159607 
	C474.556885,621.311462 464.525665,646.693542 447.916809,669.494568 
	C440.050415,680.293823 431.372223,690.397705 420.529419,698.414795 
	C419.600525,699.101624 418.791199,699.999329 417.515625,700.020447 
	C416.605194,699.846313 416.103363,699.235168 415.756104,698.431030 
	C404.277771,671.851196 385.649384,650.704895 364.731628,631.299377 
	C344.200989,612.252930 320.211517,598.077759 296.864655,582.977783 
	C272.119781,566.973511 246.912094,551.579712 225.004456,531.615356 
	C209.712585,517.679871 197.329147,501.767181 193.054138,480.926117 
	C189.298477,462.616974 191.504059,444.487488 196.049423,426.632233 
	C207.015564,383.554749 228.863541,347.036713 261.328644,316.479919 
	C284.871582,294.320862 310.991272,276.907898 341.722931,266.603302 
	C346.572968,264.977020 346.792084,263.300446 342.738464,259.807587 
	C334.176819,252.430222 328.353210,243.340836 325.051666,232.535675 
	C321.661102,221.439240 324.568542,211.168411 328.865540,201.056396 
	C334.949005,186.740280 346.071747,176.697159 357.908356,167.360046 
	C364.455261,162.195648 371.516357,157.751556 379.277313,154.560318 
	C381.421967,153.678436 383.896484,152.546326 385.856232,154.320526 
	C387.667664,155.960449 386.787720,158.525299 386.166077,160.497421 
	C384.918213,164.456177 383.376373,168.339081 381.713104,172.147263 
	C372.790863,192.575119 377.958435,209.254013 396.952179,221.037842 
	C398.226074,221.828171 399.613831,222.461838 400.797150,223.366516 
	C405.083191,226.643387 409.273865,226.474213 414.268341,224.464462 
	C427.158905,219.277390 440.572571,216.403305 454.619293,216.607178 
	C470.945618,216.844162 487.412201,217.990570 503.578064,216.361877 
	C531.537598,213.545029 556.205872,203.425491 571.678711,177.851410 
	C574.535950,173.128784 576.483337,167.983246 578.357056,162.384521 
M513.585693,318.379974 
	C513.064575,306.279755 493.747253,299.306396 482.479370,302.292938 
	C484.717957,310.653564 488.445160,317.930573 497.211121,320.783722 
	C502.632294,322.548157 508.478607,323.675079 513.585693,318.379974 
z"/>
<path fill="white" opacity="1.000000" stroke="none" 
	d="
M598.627686,443.444214 
	C610.934509,439.127228 623.337097,437.847504 635.849670,437.878204 
	C652.169922,437.918243 668.516663,437.906891 684.802368,438.810944 
	C712.001831,440.320831 736.482666,448.392578 754.135986,470.803467 
	C765.195435,484.843475 771.122559,500.794922 771.342957,518.758057 
	C771.667847,545.240479 772.223083,571.722595 772.261047,598.205383 
	C772.324890,642.794617 744.784912,678.360596 701.688904,689.694214 
	C690.992249,692.507263 680.046448,692.857178 669.015686,692.653015 
	C649.528015,692.292236 630.031799,692.417297 610.542175,692.135193 
	C567.407166,691.510742 524.274292,690.741638 481.139771,690.077759 
	C473.394623,689.958496 465.646057,690.060791 457.057465,690.060791 
	C458.977783,685.126404 461.928467,682.788147 463.990845,679.873291 
	C481.125427,655.655701 491.798737,629.014465 495.864746,599.522644 
	C499.317413,574.479675 497.321136,550.128479 489.312653,526.229309 
	C488.539795,523.922852 488.364899,522.481445 491.154694,521.756653 
	C509.970093,516.868286 523.333252,504.413208 535.553894,490.138367 
	C552.888062,469.890533 573.010681,453.248230 598.627686,443.444214 
M570.249817,517.759033 
	C567.161194,528.975891 575.513977,541.065186 586.546326,540.473877 
	C591.502319,540.208252 596.338135,540.446533 601.252808,540.553650 
	C627.550110,541.126648 653.856567,541.263489 680.157471,541.695007 
	C687.092651,541.808838 693.960083,540.065308 700.974548,541.552673 
	C704.925476,542.390503 708.395325,540.096191 711.456970,537.696533 
	C718.037598,532.538818 720.133667,522.733521 716.369751,515.176147 
	C712.670532,507.748993 704.651794,503.704437 697.378723,505.597473 
	C689.465271,507.657196 684.130432,515.194336 684.343140,524.122253 
	C684.393494,526.236267 684.667480,528.345032 684.824707,530.284546 
	C683.114868,531.635193 681.389648,531.289124 679.761475,531.295044 
	C671.601807,531.324646 663.436523,531.118164 655.284241,531.362122 
	C650.505005,531.505188 648.821838,529.963501 650.253723,525.201477 
	C650.709045,523.687195 650.383911,521.909546 650.280579,520.260864 
	C649.731995,511.510864 648.113159,502.437836 657.727722,496.929565 
	C657.999268,496.774048 658.179260,496.444183 658.377686,496.177551 
	C662.430542,490.731384 663.185486,484.704803 660.092163,478.811340 
	C656.668152,472.287933 650.696594,469.709839 643.368652,470.315704 
	C636.878479,470.852295 633.270691,474.957703 631.062927,480.538452 
	C628.338745,487.424683 630.838440,495.870483 636.962097,500.755005 
	C638.684509,502.128906 640.346985,503.212616 640.351013,505.836456 
	C640.363342,513.933472 639.970520,522.035889 640.821716,530.302795 
	C628.329224,530.302795 616.138733,530.302795 603.273865,530.302795 
	C604.610474,524.130310 604.558777,518.788330 601.817017,513.731812 
	C598.938538,508.423096 594.857605,504.954651 588.720032,504.091980 
	C580.835815,502.983795 573.772705,507.904907 570.249817,517.759033 
M711.408875,584.111084 
	C715.746887,587.611877 720.438293,589.686646 726.177795,588.064819 
	C733.699524,585.939392 738.554382,580.015076 738.751282,572.572876 
	C738.981140,563.886536 734.811768,557.714478 726.884155,555.005310 
	C721.044983,553.009888 712.596375,556.079773 708.598572,562.156372 
	C706.879761,564.768860 705.012390,565.570557 702.058655,565.455322 
	C695.900940,565.214905 689.728882,565.173279 683.566101,565.270874 
	C674.612549,565.412537 668.544739,570.205261 667.344055,579.100281 
	C665.604736,591.986145 666.659607,605.006226 666.546570,617.969421 
	C666.545105,618.132812 666.585327,618.303528 666.639099,618.459412 
	C667.520325,621.013977 668.347107,623.938477 671.709778,623.744934 
	C675.151123,623.546875 676.233765,620.774414 676.597717,617.769226 
	C676.737061,616.618286 676.651245,615.439026 676.651978,614.272644 
	C676.658875,604.107605 676.632263,593.942383 676.677246,583.777527 
	C676.705994,577.268677 678.439148,575.642029 685.088379,575.675354 
	C687.587891,575.687866 690.102234,575.910522 692.583984,575.713074 
	C700.120117,575.113342 707.154541,575.489929 711.408875,584.111084 
M553.490601,583.024292 
	C562.638000,590.019348 571.330444,588.783569 578.353149,579.071106 
	C580.293274,576.387939 582.318115,575.436890 585.409302,575.708862 
	C591.042480,576.204407 596.713257,576.340393 602.324524,576.999573 
	C609.426819,577.833923 611.058533,579.870544 611.096741,587.072693 
	C611.153259,597.732483 611.155762,608.392578 611.212708,619.052368 
	C611.228943,622.100220 612.082092,625.283325 615.477844,625.354797 
	C619.028992,625.429504 620.169189,622.189270 620.602539,619.035034 
	C620.715088,618.216125 620.653870,617.371826 620.654236,616.539185 
	C620.658936,605.878967 620.707642,595.218567 620.647766,584.558655 
	C620.597290,575.576538 615.844543,569.095642 607.040710,567.349609 
	C600.563843,566.065125 593.858276,565.643860 587.238098,565.470825 
	C582.628723,565.350403 579.291138,564.235413 576.025269,560.575500 
	C566.838074,550.279907 552.675598,553.745361 548.865112,566.939514 
	C547.156738,572.855164 548.597290,578.120911 553.490601,583.024292 
M639.244507,620.485596 
	C639.650452,627.819885 640.251953,635.178528 632.519470,639.741455 
	C631.482605,640.353271 630.874878,641.815308 630.249634,642.980957 
	C627.038330,648.967773 627.857605,655.083435 632.530273,660.542664 
	C636.823486,665.558594 643.400330,667.607910 649.099426,665.502136 
	C655.597473,663.101074 659.641968,658.330505 660.449768,651.525574 
	C661.206604,645.149963 658.809326,639.547668 653.270325,636.078491 
	C649.890930,633.961975 648.432068,631.626709 648.615540,627.632996 
	C648.905579,621.318298 648.686951,614.980347 648.687988,608.652222 
	C648.689026,601.991150 648.711548,595.330017 648.691589,588.669006 
	C648.682922,585.788330 647.242493,583.717041 644.415283,583.382812 
	C641.275269,583.011597 640.136292,585.515259 639.530029,588.040527 
	C639.186584,589.471008 639.268738,591.018250 639.264526,592.513184 
	C639.239441,601.505737 639.244934,610.498352 639.244507,620.485596 
z"/>
<path fill="white" opacity="1.000000" stroke="none" 
	d="
M583.873901,845.033813 
	C569.832336,824.919617 571.360779,790.328735 591.425842,772.348511 
	C605.503235,759.733643 625.491516,758.026123 641.045044,768.819824 
	C642.121155,769.566589 643.100891,770.543701 644.688843,770.208984 
	C646.588867,768.110168 645.927612,765.483398 645.949890,763.091064 
	C646.057251,751.598450 646.135315,740.102905 645.977661,728.611816 
	C645.916016,724.120300 647.524353,722.318115 652.133179,722.591553 
	C657.444153,722.906677 662.808716,722.918335 668.114136,722.548096 
	C672.884705,722.215149 674.443481,723.805908 674.398071,728.684570 
	C674.145386,755.819641 675.314270,782.951660 674.459473,810.096069 
	C674.008667,824.410400 674.197021,838.743958 673.996338,853.067383 
	C673.898987,860.016602 673.591553,860.222656 666.461487,860.286377 
	C662.130798,860.325073 657.784241,860.089172 653.472839,860.384888 
	C648.565735,860.721375 646.192688,858.962891 646.780029,853.855225 
	C646.866455,853.103333 646.587219,852.309387 646.458374,851.402466 
	C622.390381,867.208374 599.339233,864.888367 583.873901,845.033813 
M628.677124,839.978333 
	C638.642700,838.637451 646.209900,830.535583 646.656372,820.458618 
	C646.884521,815.310608 646.417603,810.119751 646.834351,804.994568 
	C647.659546,794.846375 638.334961,785.877686 631.728455,784.434143 
	C619.732300,781.813110 610.171875,786.024353 605.502136,796.211548 
	C600.368591,807.410583 601.269104,818.606873 606.645935,829.386475 
	C610.615540,837.344666 618.937073,841.259644 628.677124,839.978333 
z"/>
<path fill="white" opacity="1.000000" stroke="none" 
	d="
M145.707855,828.542969 
	C146.614624,824.153076 148.742813,826.714478 150.108658,827.459778 
	C161.332352,833.584717 173.212006,837.646973 185.894547,839.385010 
	C190.805344,840.057983 195.514511,839.351135 200.111877,837.696594 
	C205.886917,835.618286 209.164185,831.330994 209.506088,825.346497 
	C209.826065,819.745972 206.431366,815.739685 201.667511,813.563354 
	C193.503174,809.833496 185.097015,806.620850 176.729965,803.350769 
	C170.027466,800.731323 163.845139,797.313721 157.809708,793.345154 
	C139.557632,781.343323 137.701797,747.754883 162.583084,735.080017 
	C175.507874,728.496033 189.147293,726.827271 203.312592,728.098694 
	C210.778488,728.768677 218.082321,730.346741 225.166718,732.913818 
	C228.722397,734.202271 230.475784,736.209106 230.319046,740.282471 
	C230.025726,747.905334 230.234665,755.547485 230.234665,763.072754 
	C227.585587,763.876099 226.426437,762.073486 224.955490,761.176331 
	C213.630814,754.268982 201.484497,750.045532 188.099777,750.427673 
	C177.895111,750.718994 170.493195,760.096558 173.399857,768.553528 
	C174.863693,772.812561 178.215912,775.236023 181.932281,777.252014 
	C187.078674,780.043762 192.604736,781.884338 198.168808,783.651184 
	C207.464355,786.602905 216.148468,790.807373 223.457367,797.369080 
	C241.375977,813.456055 243.672867,842.276428 215.240768,855.929810 
	C192.860184,866.677185 170.569229,863.474121 148.695831,853.630737 
	C146.446899,852.618652 145.590240,850.958740 145.635681,848.479126 
	C145.754745,841.982300 145.681152,835.481995 145.707855,828.542969 
z"/>
<path fill="white" opacity="1.000000" stroke="none" 
	d="
M291.432373,839.640259 
	C307.421631,844.689026 320.600189,838.146423 334.250916,830.152893 
	C332.985992,837.667053 333.393036,844.438232 333.253143,851.199036 
	C333.207825,853.388977 331.582764,854.273071 330.063324,855.320190 
	C323.196777,860.052368 315.198181,860.958679 307.278107,861.811462 
	C292.781830,863.372375 278.676178,862.631775 266.087250,853.856567 
	C254.181046,845.557190 247.674866,834.247070 245.556076,819.929749 
	C243.874542,808.567078 244.889511,797.767639 249.536011,787.265869 
	C256.919342,770.578430 271.135376,763.962463 287.939484,761.810425 
	C300.035736,760.261292 310.967072,764.433228 320.875244,771.143433 
	C330.792603,777.859985 335.779480,787.479736 336.285889,799.381226 
	C336.484009,804.037415 336.172882,808.714783 336.355927,813.372192 
	C336.499847,817.034668 335.050507,818.393127 331.382996,818.338928 
	C319.390472,818.161743 307.394653,818.209656 295.400085,818.169556 
	C291.569183,818.156799 287.737274,818.076172 283.907593,818.137573 
	C275.836945,818.266968 273.616791,822.349487 277.797913,829.565186 
	C280.780701,834.712830 285.446289,837.795593 291.432373,839.640259 
M276.959625,789.566650 
	C272.867767,798.390137 273.609131,799.653076 282.954803,799.684631 
	C290.435699,799.709900 297.917450,799.762207 305.397247,799.672668 
	C307.441589,799.648132 310.089478,800.601868 311.281128,798.181885 
	C312.588562,795.526917 311.294983,793.070496 309.694550,790.792603 
	C301.944824,779.762817 286.974152,778.898254 276.959625,789.566650 
z"/>
<path fill="white" opacity="1.000000" stroke="none" 
	d="
M727.121704,818.369324 
	C726.474121,818.371521 726.304077,818.350037 726.141541,818.375977 
	C723.315247,818.828857 719.530579,816.912598 717.875122,820.143127 
	C716.101257,823.604980 717.642700,827.284424 719.538818,830.550659 
	C724.202026,838.583435 736.626526,843.478943 747.213989,841.248169 
	C751.911560,840.258301 756.779358,839.842896 761.190491,837.707642 
	C765.486755,835.628113 769.767334,833.515991 774.163818,831.364807 
	C774.163818,838.083496 774.214539,844.463257 774.136780,850.841553 
	C774.108948,853.127563 772.286438,854.224548 770.611877,855.363464 
	C764.354126,859.619507 757.191406,861.162292 749.881165,861.878662 
	C733.638977,863.470398 717.727905,862.891602 704.690063,851.198730 
	C691.978882,839.798706 686.567993,825.111206 687.330688,808.293518 
	C687.960815,794.399780 692.155579,781.845764 703.414185,772.566284 
	C721.329834,757.799988 749.725159,758.740051 766.789795,774.525879 
	C774.047302,781.239441 776.526917,789.817444 777.197449,799.144592 
	C777.554871,804.116333 777.165405,809.137329 777.344543,814.127808 
	C777.470825,817.644714 775.755737,818.935181 772.547485,818.928894 
	C765.219971,818.914551 757.874146,819.220398 750.569885,818.801758 
	C742.908325,818.362671 735.258423,818.471375 727.121704,818.369324 
M752.645752,796.304504 
	C752.469238,795.167603 752.514771,793.936829 752.080444,792.908875 
	C749.085388,785.819153 741.857056,781.765686 733.357788,782.291992 
	C727.290771,782.667725 718.891907,789.179688 717.076294,794.814941 
	C716.120056,797.782898 717.208313,799.553040 720.183411,799.596069 
	C729.675354,799.733582 739.170532,799.653992 748.664429,799.647461 
	C750.507690,799.646240 751.871582,798.881897 752.645752,796.304504 
z"/>
<path fill="white" opacity="1.000000" stroke="none" 
	d="
M405.003082,761.647034 
	C409.511780,761.389343 413.492218,761.837341 417.321991,763.022339 
	C435.047058,768.506653 443.072357,776.527771 442.661163,797.693481 
	C442.298889,816.339905 442.431519,834.995850 442.336853,853.647583 
	C442.305969,859.729309 441.853394,860.223572 435.847260,860.320435 
	C431.517975,860.390259 427.167053,860.076233 422.861542,860.403870 
	C418.162750,860.761353 416.466339,859.241028 416.559357,854.291992 
	C416.853546,838.641296 416.614441,822.981201 416.703247,807.325439 
	C416.725281,803.437195 416.063263,799.731506 414.957214,796.047241 
	C412.873962,789.107910 408.333130,785.130981 401.089294,784.233032 
	C393.190308,783.253845 386.985931,785.691956 383.087036,792.931641 
	C380.510773,797.715454 379.366180,802.864136 379.357788,808.264709 
	C379.333740,823.754395 379.213074,839.246033 379.430420,854.732605 
	C379.492065,859.125549 378.070587,860.678650 373.693085,860.443115 
	C368.046356,860.139343 362.369812,860.286255 356.708984,860.391785 
	C353.865448,860.444763 352.705750,859.630371 352.517426,856.450073 
	C351.512482,839.478455 351.782227,822.494873 351.608978,805.514343 
	C351.488403,793.695496 351.335480,781.871948 350.854340,770.064453 
	C350.661530,765.333008 352.578491,763.858032 356.962372,764.006531 
	C362.285461,764.186890 367.632996,764.254456 372.945496,763.947449 
	C377.150024,763.704468 379.358551,764.756592 378.408722,769.411011 
	C378.247620,770.200439 378.487976,771.086609 379.891663,771.764038 
	C386.461548,764.903870 394.595245,760.990601 405.003082,761.647034 
z"/>
<path fill="white" opacity="1.000000" stroke="none" 
	d="
M805.861389,824.922424 
	C814.514343,811.478699 814.563538,811.446716 805.953857,798.210022 
	C799.420593,788.165588 792.744690,778.213867 786.122375,768.227417 
	C785.492249,767.277161 784.507141,766.489563 785.149170,764.119873 
	C791.856140,764.119873 798.899353,764.398376 805.910400,764.042847 
	C813.150391,763.675659 817.916443,766.201294 821.132019,773.006653 
	C823.444092,777.899902 827.222717,782.116760 830.465759,786.548523 
	C833.341980,790.479065 834.862000,790.552368 837.519409,786.534180 
	C841.556580,780.429810 845.296692,774.129028 849.167358,767.914490 
	C850.225525,766.215515 851.192383,764.310181 853.563232,764.297668 
	C861.516052,764.255859 869.469177,764.281860 879.037781,764.281860 
	C875.901367,769.373779 873.651184,773.136475 871.294250,776.831238 
	C865.834290,785.390381 860.567505,794.088379 854.741272,802.392517 
	C851.176147,807.473694 851.000732,811.501282 854.777527,816.698181 
	C863.872070,829.212524 872.385193,842.149536 881.121216,854.924011 
	C882.041077,856.269104 882.883972,857.666809 883.749390,859.019287 
	C882.136902,861.037842 880.173645,860.265015 878.478882,860.330627 
	C871.166992,860.614258 863.823730,859.889465 856.536560,860.970093 
	C853.610962,861.403931 851.961304,859.869019 850.440186,857.622681 
	C844.391418,848.689331 838.228821,839.833069 831.994263,830.782532 
	C828.685791,832.277710 827.582397,835.227844 825.958008,837.558777 
	C821.391235,844.111694 817.011414,850.798340 812.690491,857.517456 
	C811.081177,860.020020 809.328247,860.876953 806.150330,860.680908 
	C798.901367,860.233643 791.605957,860.539673 782.757568,860.539673 
	C790.971924,847.872620 798.315918,836.547729 805.861389,824.922424 
z"/>
<path fill="white" opacity="1.000000" stroke="none" 
	d="
M513.488708,840.843994 
	C515.837097,840.432068 517.759460,840.060974 520.232239,839.583618 
	C521.321716,845.610718 520.374207,851.355042 520.058472,857.043762 
	C519.945251,859.084778 517.552979,859.609192 515.817139,860.024963 
	C504.680786,862.692139 493.425537,863.421265 482.167694,861.051086 
	C472.804474,859.079773 467.563232,853.037109 466.638794,843.297424 
	C464.950684,825.512207 466.046509,807.674805 465.940277,789.860291 
	C465.900360,783.166931 465.340393,782.454468 458.540710,782.405823 
	C448.869324,782.336609 449.714478,783.452393 449.652863,773.584351 
	C449.650787,773.251099 449.652405,772.917908 449.652405,772.584656 
	C449.652802,763.829102 450.009735,763.502136 458.632965,764.358887 
	C464.841095,764.975708 465.607086,764.302185 465.663513,758.025391 
	C465.720428,751.694397 465.741394,745.362915 465.770081,739.031677 
	C465.780853,736.651855 466.228333,734.676208 469.255402,734.683716 
	C477.390503,734.703918 485.525726,734.690613 493.941406,734.690613 
	C493.941406,741.699707 493.908081,748.297485 493.950134,754.894775 
	C493.998535,762.491821 494.170074,762.613953 501.812042,762.722168 
	C506.809448,762.792847 511.805695,762.942261 516.802917,763.029663 
	C519.886841,763.083557 521.078735,764.552917 521.245422,767.691101 
	C521.971008,781.352295 522.052368,781.347900 508.513336,781.311401 
	C492.324921,781.267761 494.079620,780.293518 493.903656,795.821655 
	C493.771576,807.476379 493.453278,819.129517 493.380707,830.784363 
	C493.326965,839.410217 496.043518,841.806152 504.575470,841.227966 
	C507.399353,841.036560 510.233368,840.994934 513.488708,840.843994 
z"/>
<path fill="white" opacity="1.000000" stroke="none" 
	d="
M561.351318,796.000122 
	C561.343872,815.811157 561.211426,835.123474 561.418091,854.432190 
	C561.467163,859.019897 560.055969,860.706360 555.443054,860.392578 
	C550.304382,860.043030 545.121704,860.112366 539.968079,860.288635 
	C536.241821,860.416077 534.575806,859.292175 534.593567,855.220947 
	C534.718994,826.421448 534.679749,797.621033 534.631592,768.821106 
	C534.627075,766.111755 535.200806,764.211487 538.353943,764.198425 
	C544.340088,764.173645 550.327271,764.198792 556.311951,764.088684 
	C560.135925,764.018372 561.515564,765.659973 561.411865,769.531982 
	C561.180237,778.182373 561.346375,786.843384 561.351318,796.000122 
z"/>
<path fill="white" opacity="1.000000" stroke="none" 
	d="
M548.809570,752.349487 
	C541.127563,752.745667 535.780884,749.612000 532.572510,743.241577 
	C529.616699,737.372620 531.194580,731.813293 535.129822,727.023926 
	C539.130005,722.155518 544.440613,720.269470 550.730408,721.672974 
	C558.246094,723.349915 563.575500,730.280884 563.338013,738.051697 
	C563.117065,745.284851 557.539368,750.941284 548.809570,752.349487 
z"/>
<path fill="white" opacity="1.000000" stroke="none" 
	d="
M585.325806,530.233948 
	C582.289490,529.102661 580.475647,527.272583 579.828003,524.470032 
	C578.714722,519.652710 581.145874,515.069214 585.253784,514.118103 
	C588.781677,513.301270 593.030640,516.410522 594.043274,520.549988 
	C595.093811,524.844177 592.256775,529.235046 587.721802,530.258728 
	C587.088867,530.401550 586.398315,530.289307 585.325806,530.233948 
z"/>
<path fill="white" opacity="1.000000" stroke="none" 
	d="
M642.207703,478.048920 
	C648.631958,475.982208 654.311218,480.610199 653.125854,486.587860 
	C652.513611,489.675385 650.797852,492.133728 647.596863,493.061035 
	C644.996704,493.814301 642.678345,493.160583 640.822632,491.100647 
	C638.329529,488.333313 638.081726,485.094910 639.234680,481.798431 
	C639.697754,480.474457 640.970886,479.433807 642.207703,478.048920 
z"/>
<path fill="white" opacity="1.000000" stroke="none" 
	d="
M698.126526,516.075684 
	C701.834473,514.732605 704.699707,515.482666 706.825378,518.378357 
	C709.206482,521.622070 708.851624,526.793640 706.027527,529.358948 
	C703.204102,531.923584 700.033813,532.164612 696.962463,529.861389 
	C693.524780,527.283386 692.840881,522.329468 695.329346,518.681763 
	C695.966248,517.748230 696.966797,517.062866 698.126526,516.075684 
z"/>
<path fill="white" opacity="1.000000" stroke="none" 
	d="
M717.756775,576.255737 
	C714.833313,571.333191 715.279297,568.039062 718.975098,565.764221 
	C722.303162,563.715759 725.356079,564.368958 727.759338,567.295349 
	C730.421326,570.536865 729.808228,573.884644 726.945496,576.547668 
	C724.182495,579.117859 721.012573,579.101013 717.756775,576.255737 
z"/>
<path fill="white" opacity="1.000000" stroke="none" 
	d="
M556.649048,571.038025 
	C557.645081,565.468262 560.510071,562.519043 564.125854,562.922058 
	C567.733887,563.324219 571.321350,567.597412 571.264526,571.425354 
	C571.204712,575.455017 568.125305,578.978577 564.348328,579.339172 
	C560.172363,579.737732 557.581421,577.087280 556.649048,571.038025 
z"/>
<path fill="white" opacity="1.000000" stroke="none" 
	d="
M639.049988,647.130493 
	C641.159485,644.121643 643.638306,642.675781 646.946106,643.985291 
	C649.287292,644.912109 650.692444,646.938660 650.898254,649.360596 
	C651.129272,652.080261 649.505737,654.039246 647.218201,655.399170 
	C645.112610,656.650940 643.060486,656.397034 641.160217,654.968445 
	C638.590942,653.036926 637.857239,650.501282 639.049988,647.130493 
z"/>
</svg>
